<?xml version="1.0" encoding="UTF-8" standalone="no"?>
<!-- Created with Inkscape (http://www.inkscape.org/) -->

<svg
   width="3.8097005mm"
   height="3.8097005mm"
   viewBox="0 0 3.8097005 3.8097005"
   version="1.1"
   id="svg5"
   inkscape:version="1.2.1 (9c6d41e410, 2022-07-14)"
   sodipodi:docname="loop.svg"
   inkscape:export-filename="playBtnPause.svg"
   inkscape:export-xdpi="96"
   inkscape:export-ydpi="96"
   xml:space="preserve"
   xmlns:inkscape="http://www.inkscape.org/namespaces/inkscape"
   xmlns:sodipodi="http://sodipodi.sourceforge.net/DTD/sodipodi-0.dtd"
   xmlns="http://www.w3.org/2000/svg"
   xmlns:svg="http://www.w3.org/2000/svg"><sodipodi:namedview
     id="namedview7"
     pagecolor="#505050"
     bordercolor="#ffffff"
     borderopacity="1"
     inkscape:pageshadow="0"
     inkscape:pageopacity="0"
     inkscape:pagecheckerboard="1"
     inkscape:document-units="mm"
     showgrid="false"
     showguides="true"
     inkscape:guide-bbox="true"
     inkscape:zoom="16.797323"
     inkscape:cx="17.770689"
     inkscape:cy="3.9291975"
     inkscape:window-width="1920"
     inkscape:window-height="1011"
     inkscape:window-x="0"
     inkscape:window-y="0"
     inkscape:window-maximized="1"
     inkscape:current-layer="layer2"
     inkscape:snap-bbox="true"
     inkscape:bbox-paths="true"
     inkscape:bbox-nodes="true"
     inkscape:snap-bbox-midpoints="true"
     inkscape:snap-bbox-edge-midpoints="true"
     inkscape:snap-page="true"
     fit-margin-top="0"
     fit-margin-left="0"
     fit-margin-right="0"
     fit-margin-bottom="0"
     inkscape:showpageshadow="0"
     inkscape:deskcolor="#505050" /><defs
     id="defs2" /><g
     inkscape:groupmode="layer"
     id="layer2"
     inkscape:label="circleButton"
     style="display:inline"
     transform="translate(-2.4837749,-2.7294204)"><rect
       style="display:inline;fill:#3213ee;fill-opacity:1;fill-rule:evenodd;stroke-width:0.2;stroke-linecap:round;stroke-linejoin:round;paint-order:markers fill stroke"
       id="rect1198"
       width="3.8097005"
       height="3.8097005"
       x="2.4837749"
       y="2.7294204"
       ry="0.39180583" /><g
       id="g9660"
       transform="matrix(-0.13636878,0.08807053,-0.08807053,-0.13636878,59.066339,17.938117)"
       style="fill:#7762f4;fill-opacity:1">
	<g
   id="g9658"
   style="fill:#7762f4;fill-opacity:1">
		<path
   d="m 243.46211,250.76699 c -0.88204,0 -1.59709,0.71504 -1.59709,1.59708 0,1.86601 -1.51806,3.38407 -3.38404,3.38407 -1.86598,0 -3.38407,-1.51806 -3.38407,-3.38407 0,-1.54033 1.03453,-2.84348 2.44522,-3.25143 v 0.18449 c 0,0.44908 0.24162,0.86748 0.63055,1.09192 0.3911,0.2257 0.87209,0.22435 1.26093,-4.7e-4 l 3.31285,-1.91418 c 0.38862,-0.22456 0.62998,-0.64284 0.62998,-1.0916 0,-0.44882 -0.24142,-0.86708 -0.63004,-1.09163 l -3.31279,-1.91416 c -0.38942,-0.22507 -0.87044,-0.22567 -1.2609,-2.3e-4 -0.38896,0.2245 -0.63055,0.64287 -0.63055,1.09197 v 0.38439 c -3.18412,0.45696 -5.63942,3.20237 -5.63942,6.5109 0,3.62727 2.95102,6.57824 6.57824,6.57824 3.62722,0 6.57821,-2.95099 6.57821,-6.57824 3e-5,-0.88204 -0.71504,-1.59709 -1.59708,-1.59709 z"
   id="path9656"
   style="fill:#7762f4;fill-opacity:1;stroke-width:0.0287778" />
	</g>
</g></g></svg>
