<?xml version="1.0" encoding="UTF-8" standalone="no"?>
<!-- Svg Vector Icons : http://www.onlinewebfonts.com/icon -->

<svg
   version="1.1"
   x="0px"
   y="0px"
   viewBox="0 0 1000 1000"
   enable-background="new 0 0 1000 1000"
   xml:space="preserve"
   id="svg8"
   sodipodi:docname="headphones.svg"
   inkscape:version="1.2.2 (b0a8486541, 2022-12-01)"
   xmlns:inkscape="http://www.inkscape.org/namespaces/inkscape"
   xmlns:sodipodi="http://sodipodi.sourceforge.net/DTD/sodipodi-0.dtd"
   xmlns="http://www.w3.org/2000/svg"
   xmlns:svg="http://www.w3.org/2000/svg"><defs
   id="defs12" /><sodipodi:namedview
   id="namedview10"
   pagecolor="#505050"
   bordercolor="#ffffff"
   borderopacity="1"
   inkscape:showpageshadow="0"
   inkscape:pageopacity="0"
   inkscape:pagecheckerboard="1"
   inkscape:deskcolor="#505050"
   showgrid="false"
   inkscape:zoom="0.776"
   inkscape:cx="501.93299"
   inkscape:cy="500"
   inkscape:window-width="1920"
   inkscape:window-height="1011"
   inkscape:window-x="0"
   inkscape:window-y="0"
   inkscape:window-maximized="1"
   inkscape:current-layer="svg8" />
<metadata
   id="metadata2"> Svg Vector Icons : http://www.onlinewebfonts.com/icon </metadata>
<path
   d="M 990,506.9 C 990,235 770.7,13.7 500.8,12.9 v 0 c -0.3,0 -0.5,0 -0.8,0 -0.3,0 -0.5,0 -0.8,0 v 0 C 229.3,13.7 10,235 10,506.9 c 0,63 11.6,123.7 34.3,181.3 -2.9,13 -3.8,26.7 -2.5,40.6 l 14,141.8 c 7,71.1 70.3,123 141.4,116 71.1,-7.1 123,-70.4 116,-141.4 l -14,-141.7 c -7,-71.1 -70.3,-123 -141.4,-116 -10.9,1.1 -21.2,3.6 -31,7.2 -6.5,-28.4 -9.8,-57.7 -9.8,-87.6 0,-213.2 171.8,-386.7 383.1,-387.2 211.3,0.4 383.1,174 383.1,387.2 0,29.9 -3.3,59.2 -9.8,87.6 -9.8,-3.6 -20.2,-6 -31,-7.2 -71.1,-7 -134.4,44.9 -141.4,116 l -14,141.7 c -7,71.1 44.9,134.4 116,141.4 71.1,7 134.4,-44.9 141.4,-116 l 14,-141.8 c 1.4,-13.9 0.4,-27.6 -2.5,-40.6 C 978.4,630.6 990,569.9 990,506.9 Z"
   id="path4"
   style="fill:#3213ee" />
</svg>
